<svg xmlns="http://www.w3.org/2000/svg" xmlns:xlink="http://www.w3.org/1999/xlink" width="500" zoomAndPan="magnify" viewBox="0 0 375 374.999991" height="500" preserveAspectRatio="xMidYMid meet" version="1.0"><defs><g/><clipPath id="bf376a0e26"><path d="M 53.878906 133.808594 L 161.128906 133.808594 L 161.128906 241.058594 L 53.878906 241.058594 Z M 53.878906 133.808594 " clip-rule="nonzero"/></clipPath><clipPath id="df3d9dba8c"><path d="M 71.855469 133.808594 L 143.148438 133.808594 C 147.917969 133.808594 152.492188 135.703125 155.863281 139.074219 C 159.234375 142.445312 161.128906 147.015625 161.128906 151.785156 L 161.128906 223.082031 C 161.128906 227.847656 159.234375 232.421875 155.863281 235.792969 C 152.492188 239.164062 147.917969 241.058594 143.148438 241.058594 L 71.855469 241.058594 C 67.085938 241.058594 62.515625 239.164062 59.144531 235.792969 C 55.769531 232.421875 53.878906 227.847656 53.878906 223.082031 L 53.878906 151.785156 C 53.878906 147.015625 55.769531 142.445312 59.144531 139.074219 C 62.515625 135.703125 67.085938 133.808594 71.855469 133.808594 " clip-rule="nonzero"/></clipPath><clipPath id="b5149fb325"><path d="M 117.867188 206.882812 L 131.367188 206.882812 L 131.367188 228.632812 L 117.867188 228.632812 Z M 117.867188 206.882812 " clip-rule="nonzero"/></clipPath><clipPath id="58616ebd52"><path d="M 124.617188 206.882812 C 126.40625 206.882812 128.121094 207.585938 129.386719 208.832031 C 130.652344 210.078125 131.363281 211.773438 131.363281 213.535156 L 131.363281 221.984375 C 131.363281 223.746094 130.652344 225.4375 129.386719 226.6875 C 128.121094 227.933594 126.40625 228.632812 124.617188 228.632812 C 122.828125 228.632812 121.109375 227.933594 119.84375 226.6875 C 118.578125 225.4375 117.867188 223.746094 117.867188 221.984375 L 117.867188 213.535156 C 117.867188 211.773438 118.578125 210.078125 119.84375 208.832031 C 121.109375 207.585938 122.828125 206.882812 124.617188 206.882812 " clip-rule="nonzero"/></clipPath><clipPath id="41c6f0d822"><path d="M 107.699219 157.1875 L 141.683594 157.1875 L 141.683594 187.828125 L 107.699219 187.828125 Z M 107.699219 157.1875 " clip-rule="nonzero"/></clipPath><clipPath id="e7d8fe4fc5"><path d="M 126.933594 158.777344 L 141.195312 183.882812 C 141.660156 184.699219 141.65625 185.703125 141.1875 186.515625 C 140.71875 187.328125 139.855469 187.828125 138.917969 187.828125 L 110.460938 187.828125 C 109.527344 187.828125 108.660156 187.328125 108.191406 186.515625 C 107.722656 185.703125 107.71875 184.699219 108.183594 183.882812 L 122.445312 158.777344 C 122.90625 157.96875 123.761719 157.46875 124.691406 157.46875 C 125.617188 157.46875 126.472656 157.96875 126.933594 158.777344 " clip-rule="nonzero"/></clipPath><clipPath id="cd0baf0621"><path d="M 107.511719 193.515625 L 141.496094 193.515625 L 141.496094 217 L 107.511719 217 Z M 107.511719 193.515625 " clip-rule="nonzero"/></clipPath><clipPath id="5781d766ad"><path d="M 121.851562 215.410156 L 108.402344 197.125 C 107.894531 196.429688 107.824219 195.515625 108.21875 194.757812 C 108.613281 193.996094 109.40625 193.515625 110.273438 193.515625 L 138.730469 193.515625 C 139.597656 193.515625 140.390625 193.996094 140.785156 194.757812 C 141.179688 195.515625 141.109375 196.429688 140.601562 197.125 L 127.152344 215.410156 C 126.539062 216.246094 125.550781 216.742188 124.503906 216.742188 C 123.453125 216.742188 122.464844 216.246094 121.851562 215.410156 " clip-rule="nonzero"/></clipPath><clipPath id="d999559ce6"><path d="M 71.820312 192.894531 L 105.804688 192.894531 L 105.804688 223.539062 L 71.820312 223.539062 Z M 71.820312 192.894531 " clip-rule="nonzero"/></clipPath><clipPath id="1f8f3c0c69"><path d="M 86.570312 221.949219 L 72.304688 196.84375 C 71.84375 196.027344 71.847656 195.023438 72.316406 194.210938 C 72.785156 193.398438 73.648438 192.894531 74.585938 192.894531 L 103.042969 192.894531 C 103.976562 192.894531 104.839844 193.398438 105.3125 194.210938 C 105.78125 195.023438 105.785156 196.027344 105.320312 196.84375 L 91.054688 221.949219 C 90.597656 222.757812 89.742188 223.257812 88.8125 223.257812 C 87.886719 223.257812 87.03125 222.757812 86.570312 221.949219 " clip-rule="nonzero"/></clipPath></defs><g fill="#c8f023" fill-opacity="1"><g transform="translate(173.937927, 179.370339)"><g><path d="M 37.4375 0 L 26.5 0 L 17.734375 -12.640625 L 8.953125 0 L -1.53125 0 L 12.515625 -19.984375 L 0.8125 -37.125 L 10.890625 -37.125 L 17.734375 -27 L 24.5625 -37.125 L 35.09375 -37.125 L 22.953125 -19.984375 Z M 37.4375 0 "/></g></g></g><g fill="#c8f023" fill-opacity="1"><g transform="translate(209.847894, 179.370339)"><g><path d="M 21.5625 -37.125 L 36.546875 0 L 27.453125 0 L 24.703125 -7.421875 L 10.578125 -7.421875 L 7.828125 0 L -1.265625 0 L 13.71875 -37.125 Z M 21.828125 -14.84375 L 17.6875 -25.65625 L 17.59375 -25.65625 L 13.453125 -14.84375 Z M 21.828125 -14.84375 "/></g></g></g><g fill="#c8f023" fill-opacity="1"><g transform="translate(245.127864, 179.370339)"><g><path d="M 14.3125 0 L -1.265625 -37.125 L 8.28125 -37.125 L 17.640625 -12.734375 L 27 -37.125 L 36.546875 -37.125 L 20.96875 0 Z M 14.3125 0 "/></g></g></g><g fill="#c8f023" fill-opacity="1"><g transform="translate(280.407833, 179.370339)"><g><path d="M -1.34375 -37.125 L 8.8125 -37.125 L 16.5625 -25.25 L 24.296875 -37.125 L 34.46875 -37.125 L 20.796875 -16.65625 L 20.796875 0 L 12.328125 0 L 12.328125 -16.65625 Z M -1.34375 -37.125 "/></g></g></g><g fill="#c8f023" fill-opacity="1"><g transform="translate(173.937927, 231.120335)"><g><path d="M 0.359375 -29.703125 L 0.359375 -37.125 L 26.453125 -37.125 L 26.453125 -29.703125 L 17.640625 -29.703125 L 17.640625 0 L 9.1875 0 L 9.1875 -29.703125 Z M 0.359375 -29.703125 "/></g></g></g><g fill="#c8f023" fill-opacity="1"><g transform="translate(200.757898, 231.120335)"><g><path d="M 23.9375 -37.125 L 23.9375 -29.703125 L 11.15625 -29.703125 L 11.15625 -22.3125 L 23.40625 -22.3125 L 23.40625 -14.890625 L 11.15625 -14.890625 L 11.15625 -7.421875 L 23.9375 -7.421875 L 23.9375 0 L 2.703125 0 L 2.703125 -37.125 Z M 23.9375 -37.125 "/></g></g></g><g fill="#c8f023" fill-opacity="1"><g transform="translate(226.857876, 231.120335)"><g><path d="M 22.453125 -7.65625 C 23.742188 -7.65625 24.992188 -7.847656 26.203125 -8.234375 C 27.421875 -8.617188 28.316406 -8.992188 28.890625 -9.359375 L 29.75 -9.9375 L 33.34375 -2.75 C 33.226562 -2.65625 33.0625 -2.53125 32.84375 -2.375 C 32.632812 -2.226562 32.144531 -1.953125 31.375 -1.546875 C 30.613281 -1.140625 29.796875 -0.785156 28.921875 -0.484375 C 28.054688 -0.191406 26.921875 0.0703125 25.515625 0.3125 C 24.109375 0.550781 22.65625 0.671875 21.15625 0.671875 C 17.695312 0.671875 14.421875 -0.171875 11.328125 -1.859375 C 8.242188 -3.554688 5.753906 -5.890625 3.859375 -8.859375 C 1.972656 -11.828125 1.03125 -15.039062 1.03125 -18.5 C 1.03125 -21.101562 1.582031 -23.601562 2.6875 -26 C 3.800781 -28.40625 5.28125 -30.460938 7.125 -32.171875 C 8.976562 -33.878906 11.132812 -35.242188 13.59375 -36.265625 C 16.050781 -37.285156 18.570312 -37.796875 21.15625 -37.796875 C 23.550781 -37.796875 25.757812 -37.507812 27.78125 -36.9375 C 29.8125 -36.375 31.242188 -35.804688 32.078125 -35.234375 L 33.34375 -34.375 L 29.75 -27.1875 C 29.539062 -27.363281 29.222656 -27.578125 28.796875 -27.828125 C 28.378906 -28.085938 27.539062 -28.425781 26.28125 -28.84375 C 25.019531 -29.257812 23.742188 -29.46875 22.453125 -29.46875 C 20.410156 -29.46875 18.578125 -29.140625 16.953125 -28.484375 C 15.335938 -27.828125 14.054688 -26.957031 13.109375 -25.875 C 12.171875 -24.789062 11.453125 -23.625 10.953125 -22.375 C 10.460938 -21.132812 10.21875 -19.867188 10.21875 -18.578125 C 10.21875 -15.765625 11.273438 -13.238281 13.390625 -11 C 15.503906 -8.769531 18.523438 -7.65625 22.453125 -7.65625 Z M 22.453125 -7.65625 "/></g></g></g><g fill="#c8f023" fill-opacity="1"><g transform="translate(260.742845, 231.120335)"><g><path d="M 11.15625 -14.890625 L 11.15625 0 L 2.703125 0 L 2.703125 -37.125 L 11.15625 -37.125 L 11.15625 -22.3125 L 23.125 -22.3125 L 23.125 -37.125 L 31.59375 -37.125 L 31.59375 0 L 23.125 0 L 23.125 -14.890625 Z M 11.15625 -14.890625 "/></g></g></g><g clip-path="url(#bf376a0e26)"><g clip-path="url(#df3d9dba8c)"><path stroke-linecap="butt" transform="matrix(0.7491, 0, 0, 0.7491, 53.877383, 133.807477)" fill="none" stroke-linejoin="miter" d="M 23.999594 0.00149104 L 119.171144 0.00149104 C 125.538163 0.00149104 131.644452 2.530569 136.144646 7.030763 C 140.64484 11.530958 143.173918 17.632032 143.173918 23.999051 L 143.173918 119.175815 C 143.173918 125.53762 140.64484 131.643909 136.144646 136.144103 C 131.644452 140.644297 125.538163 143.173375 119.171144 143.173375 L 23.999594 143.173375 C 17.632575 143.173375 11.531501 140.644297 7.031306 136.144103 C 2.525897 131.643909 0.00203403 125.53762 0.00203403 119.175815 L 0.00203403 23.999051 C 0.00203403 17.632032 2.525897 11.530958 7.031306 7.030763 C 11.531501 2.530569 17.632575 0.00149104 23.999594 0.00149104 " stroke="#c8f023" stroke-width="26" stroke-opacity="1" stroke-miterlimit="4"/></g></g><g clip-path="url(#b5149fb325)"><g clip-path="url(#58616ebd52)"><path stroke-linecap="butt" transform="matrix(0.751958, 0, 0, 0.741214, 117.868151, 206.88422)" fill="none" stroke-linejoin="miter" d="M 8.975281 -0.00189893 C 11.354486 -0.00189893 13.63499 0.946714 15.318095 2.627866 C 17.001201 4.309019 17.946649 6.596229 17.946649 8.973031 L 17.946649 20.372193 C 17.946649 22.748994 17.001201 25.030935 15.318095 26.717357 C 13.63499 28.39851 11.354486 29.341852 8.975281 29.341852 C 6.596076 29.341852 4.310378 28.39851 2.627272 26.717357 C 0.944167 25.030935 -0.00128153 22.748994 -0.00128153 20.372193 L -0.00128153 8.973031 C -0.00128153 6.596229 0.944167 4.309019 2.627272 2.627866 C 4.310378 0.946714 6.596076 -0.00189893 8.975281 -0.00189893 " stroke="#c8f023" stroke-width="18" stroke-opacity="1" stroke-miterlimit="4"/></g></g><g clip-path="url(#41c6f0d822)"><g clip-path="url(#e7d8fe4fc5)"><path stroke-linecap="butt" transform="matrix(0.753769, 0, 0, 0.758076, 105.940061, 154.829551)" fill="none" stroke-linejoin="miter" d="M 27.851423 5.207648 L 46.771972 38.324994 C 47.388665 39.401939 47.383483 40.726221 46.761608 41.798013 C 46.139733 42.869805 44.994446 43.529369 43.750696 43.529369 L 5.997697 43.529369 C 4.759129 43.529369 3.60866 42.869805 2.986785 41.798013 C 2.36491 40.726221 2.359728 39.401939 2.976421 38.324994 L 21.89697 5.207648 C 22.50848 4.141008 23.643402 3.481444 24.876788 3.481444 C 26.104991 3.481444 27.239913 4.141008 27.851423 5.207648 " stroke="#c8f023" stroke-width="18" stroke-opacity="1" stroke-miterlimit="4"/></g></g><path stroke-linecap="round" transform="matrix(4.809838, -4.809838, 4.772971, 4.772971, 74.960347, 185.110797)" fill="none" stroke-linejoin="miter" d="M 0.50008 0.000322077 L 5.344886 -0.0000871283 " stroke="#c8f023" stroke-width="1" stroke-opacity="1" stroke-miterlimit="4"/><path stroke-linecap="round" transform="matrix(-4.809838, -4.809838, 4.772971, -4.772971, 102.852391, 185.110797)" fill="none" stroke-linejoin="miter" d="M 0.499699 0.0000621833 L 5.344911 0.0000621833 " stroke="#c8f023" stroke-width="1" stroke-opacity="1" stroke-miterlimit="4"/><g clip-path="url(#cd0baf0621)"><g clip-path="url(#5781d766ad)"><path stroke-linecap="butt" transform="matrix(-0.753769, -0.000000000000000092, 0.000000000000000091, -0.742155, 143.252558, 219.016627)" fill="none" stroke-linejoin="miter" d="M 28.391991 4.859455 L 46.234623 29.497362 C 46.908321 30.434244 47.001602 31.665876 46.47819 32.686973 C 45.954779 33.713333 44.902774 34.36073 43.752305 34.36073 L 5.999306 34.36073 C 4.848837 34.36073 3.796832 33.713333 3.27342 32.686973 C 2.750009 31.665876 2.84329 30.434244 3.516988 29.497362 L 21.35962 4.859455 C 22.17324 3.733091 23.48436 3.064641 24.873214 3.064641 C 26.267251 3.064641 27.578371 3.733091 28.391991 4.859455 " stroke="#c8f023" stroke-width="18" stroke-opacity="1" stroke-miterlimit="4"/></g></g><g clip-path="url(#d999559ce6)"><g clip-path="url(#1f8f3c0c69)"><path stroke-linecap="butt" transform="matrix(-0.753769, -0.000000000000000092, 0.000000000000000093, -0.758076, 107.563041, 225.895809)" fill="none" stroke-linejoin="miter" d="M 27.850357 5.206061 L 46.776088 38.323408 C 47.387598 39.400353 47.382416 40.724634 46.760541 41.796426 C 46.138666 42.868219 44.993379 43.532936 43.749629 43.532936 L 5.99663 43.532936 C 4.758063 43.532936 3.612776 42.868219 2.985719 41.796426 C 2.363844 40.724634 2.358661 39.400353 2.975354 38.323408 L 21.901085 5.206061 C 22.507413 4.139422 23.642335 3.479857 24.875721 3.479857 C 26.103924 3.479857 27.238846 4.139422 27.850357 5.206061 " stroke="#c8f023" stroke-width="18" stroke-opacity="1" stroke-miterlimit="4"/></g></g></svg>